<?xml version="1.0" encoding="utf-8"?>
<!-- Generator: Adobe Illustrator 23.0.3, SVG Export Plug-In . SVG Version: 6.00 Build 0)  -->
<svg version="1.1" id="Laag_1" xmlns="http://www.w3.org/2000/svg" xmlns:xlink="http://www.w3.org/1999/xlink" x="0px" y="0px"
	 viewBox="0 0 212.2 212.6" style="enable-background:new 0 0 212.2 212.6;" xml:space="preserve">
<style type="text/css">
	.st0{display:none;fill:#FFFFFF;}
	.st1{display:none;}
	.st2{display:inline;}
	.st3{fill:#FFFFFF;}
	.st4{fill:#1D1D1B;}
	.st5{fill:#FFFFFF;enable-background:new    ;}
	.st6{fill:#DD9E51;}
	.st7{fill:#6D98AF;}
	.st8{fill:#527A65;}
	.st9{fill:#696572;}
</style>
<g>
	<rect x="-211.5" y="1.5" class="st0" width="209.6" height="209.6"/>
	<g class="st1">
		<g class="st2">
			<rect x="-212" y="1" class="st3" width="423.2" height="210.6"/>
			<path class="st4" d="M210.2,2v208.6H-211V2H210.2 M212.2,0H-213v212.6h425.2L212.2,0L212.2,0z"/>
		</g>
	</g>
	<g>
		<g>
			<rect y="0" class="st4" width="212.6" height="212.6"/>
		</g>
	</g>
</g>
<g>
	<circle class="st5" cx="72.4" cy="129.8" r="4.7"/>
	<circle class="st5" cx="94.9" cy="129.8" r="4.7"/>
	<circle class="st5" cx="72.4" cy="107.4" r="4.7"/>
	<circle class="st5" cx="94.9" cy="107.4" r="4.7"/>
	<circle class="st5" cx="72.4" cy="84.9" r="4.7"/>
	<circle class="st5" cx="94.9" cy="84.9" r="4.7"/>
	<circle class="st5" cx="117.2" cy="129.8" r="4.7"/>
	<circle class="st5" cx="139.6" cy="129.8" r="4.7"/>
	<circle class="st5" cx="117.2" cy="107.4" r="4.7"/>
	<circle class="st5" cx="139.6" cy="107.4" r="4.7"/>
	<circle class="st5" cx="117.2" cy="84.9" r="4.7"/>
	<circle class="st5" cx="139.6" cy="84.9" r="4.7"/>
	<circle class="st5" cx="72.4" cy="62.6" r="4.7"/>
	<circle class="st5" cx="94.9" cy="62.6" r="4.7"/>
	<circle class="st5" cx="117.2" cy="62.6" r="4.7"/>
	<circle class="st5" cx="139.6" cy="62.6" r="4.7"/>
	<circle class="st5" cx="72.4" cy="152.1" r="4.7"/>
	<circle class="st5" cx="94.9" cy="152.1" r="4.7"/>
	<circle class="st5" cx="117.2" cy="152.1" r="4.7"/>
	<circle class="st5" cx="139.6" cy="152.1" r="4.7"/>
	<path class="st6" d="M38.8,125.1h-7.6c-0.7,0-1.3-0.6-1.3-1.3V57.3c0-0.7,0.6-1.3,1.3-1.3h7.6c0.7,0,1.3,0.6,1.3,1.3v66.5
		C40.1,124.5,39.5,125.1,38.8,125.1z"/>
	<path class="st7" d="M38.8,186.5h-7.6c-0.7,0-1.3-0.6-1.3-1.3v-66.5c0-0.7,0.6-1.3,1.3-1.3h7.6c0.7,0,1.3,0.6,1.3,1.3v66.5
		C40.1,185.9,39.5,186.5,38.8,186.5z"/>
	<path class="st8" d="M180.8,125.1h-7.6c-0.7,0-1.3-0.6-1.3-1.3V57.3c0-0.7,0.6-1.3,1.3-1.3h7.6c0.7,0,1.3,0.6,1.3,1.3v66.5
		C182.1,124.5,181.5,125.1,180.8,125.1z"/>
	<path class="st6" d="M180.8,186.5h-7.6c-0.7,0-1.3-0.6-1.3-1.3v-66.5c0-0.7,0.6-1.3,1.3-1.3h7.6c0.7,0,1.3,0.6,1.3,1.3v66.5
		C182.1,185.9,181.5,186.5,180.8,186.5z"/>
	<circle class="st5" cx="34.9" cy="121.1" r="1.6"/>
	<path class="st6" d="M29.8,185.3v-7.9c0-0.6,0.5-1.2,1.2-1.2h53c0.6,0,1.2,0.5,1.2,1.2v7.9c0,0.6-0.5,1.2-1.2,1.2H31
		C30.4,186.5,29.8,186,29.8,185.3z"/>
	<path class="st7" d="M101.6,29.9v-8.1c0-0.6,0.5-1.1,1.1-1.1H146c0.6,0,1.1,0.5,1.1,1.1v8.1c0,0.6-0.5,1.1-1.1,1.1h-43.4
		C102,30.9,101.6,30.4,101.6,29.9z"/>
	<path class="st8" d="M78.3,185.3v-7.9c0-0.6,0.5-1.2,1.2-1.2h53c0.6,0,1.2,0.5,1.2,1.2v7.9c0,0.6-0.5,1.2-1.2,1.2h-53
		C78.8,186.5,78.3,186,78.3,185.3z"/>
	<path class="st8" d="M64.9,29.9v-8.1c0-0.6,0.5-1.1,1.1-1.1h43.4c0.6,0,1.1,0.5,1.1,1.1v8.1c0,0.6-0.5,1.1-1.1,1.1H65.9
		C65.4,30.9,64.9,30.4,64.9,29.9z"/>
	<path class="st7" d="M126.8,185.3v-7.9c0-0.6,0.5-1.2,1.2-1.2h53c0.6,0,1.2,0.5,1.2,1.2v7.9c0,0.6-0.5,1.2-1.2,1.2h-53
		C127.3,186.5,126.8,186,126.8,185.3z"/>
	<path class="st9" d="M35.1,64.8l-5.6-5.6c-0.5-0.5-0.5-1.2,0-1.6L67,20.1c0.5-0.5,1.2-0.5,1.6,0l5.6,5.6c0.5,0.5,0.5,1.2,0,1.6
		L36.8,64.8C36.3,65.2,35.6,65.2,35.1,64.8z"/>
	<path class="st9" d="M176.8,64.8l5.6-5.6c0.5-0.5,0.5-1.2,0-1.6L145,20.2c-0.5-0.5-1.2-0.5-1.6,0l-5.6,5.6c-0.5,0.5-0.5,1.2,0,1.6
		l37.4,37.4C175.6,65.2,176.4,65.2,176.8,64.8z"/>
	<path class="st9" d="M28.7,186.5h-7.9c-0.6,0-1.2-0.5-1.2-1.2v-53c0-0.6,0.5-1.2,1.2-1.2h7.9c0.6,0,1.2,0.5,1.2,1.2v53
		C29.8,186,29.3,186.5,28.7,186.5z"/>
	<path class="st9" d="M191.1,186.5h-7.9c-0.6,0-1.2-0.5-1.2-1.2v-53c0-0.6,0.5-1.2,1.2-1.2h7.9c0.6,0,1.2,0.5,1.2,1.2v53
		C192.3,186,191.8,186.5,191.1,186.5z"/>
	<circle class="st5" cx="177" cy="121.1" r="1.6"/>
	<circle class="st5" cx="34.9" cy="60.2" r="1.6"/>
	<circle class="st5" cx="177" cy="59.7" r="1.6"/>
	<circle class="st5" cx="34.9" cy="181.4" r="1.6"/>
	<circle class="st5" cx="177" cy="181.4" r="1.6"/>
	<circle class="st5" cx="130.3" cy="181.4" r="1.6"/>
	<circle class="st5" cx="82" cy="181.4" r="1.6"/>
	<circle class="st5" cx="68.5" cy="25.8" r="1.6"/>
	<circle class="st5" cx="142.8" cy="25.8" r="1.6"/>
	<circle class="st5" cx="106.2" cy="25.8" r="1.6"/>
</g>
</svg>
